<?xml version="1.0" standalone="no"?>
<svg xmlns="http://www.w3.org/2000/svg" width="800" height="600" viewBox="0 0 800 600">
<g transform="translate(8,595)scale(0.294,-0.294)">
<path d="M1177,864l1211,880-18-184c6,13,13,26,21,38l265,393-455-131
c-14-4-29-7-43-8l181-40-1211-880Z"/>
<path fill="#f00000" transform="translate(230,30)scale(1.1,1.1)" d="M1,1132c0,217,187,418,406,418
207,0,313-96,428-221 115,125,221,221,428,221 219,0,406-201,406-418
0-217-102-390-300-597-185-192-410-409-534-534-124,125-349,342-534,534
-198,207-300,380-300,597Z"/>
<path d="M1128,932l-807-586-117,61-41-29 117-61-40-30-117,61-41-29 117-61
-40-29-117,60-41-29 118-61-24-17 49-68 24,17 22-130 40,29-22,131 41,29 21-130
41,29-22,130 41,30 21-130 41,29-22,130 807,586Z"/></g></svg>